<svg xmlns="http://www.w3.org/2000/svg" xmlns:xlink="http://www.w3.org/1999/xlink" version="1.1" width="256" height="256" viewBox="0 0 256 256" xml:space="preserve">

<defs>
</defs>
<g style="stroke: none; stroke-width: 0; stroke-dasharray: none; stroke-linecap: butt; stroke-linejoin: miter; stroke-miterlimit: 10; fill: none; fill-rule: nonzero; opacity: 1;" transform="translate(1.4065934065934016 1.4065934065934016) scale(2.81 2.81)" >
	<polygon points="45,67.45 16.98,87.19 27.43,54.57 0,34.38 33.97,34.38 45,1.55 56.03,34.38 90,34.38 62.56,54.57 73.02,87.19 " style="stroke: none; stroke-width: 1; stroke-dasharray: none; stroke-linecap: butt; stroke-linejoin: miter; stroke-miterlimit: 10; fill: rgb(255,220,100); fill-rule: nonzero; opacity: 1;" transform="  matrix(1 0 0 1 0 0) "/>
	<path d="M 71.375 57.651 c 1.393 -0.34 2.666 -0.328 3.903 -0.211 c 1.232 0.131 2.417 0.401 3.562 0.789 c 1.145 0.387 2.248 0.897 3.305 1.545 c 1.052 0.661 2.067 1.43 2.961 2.554 c -1.394 0.344 -2.668 0.334 -3.904 0.216 c -1.232 -0.132 -2.418 -0.401 -3.561 -0.793 c -1.144 -0.392 -2.247 -0.902 -3.303 -1.55 C 73.287 59.538 72.271 58.77 71.375 57.651 z" style="stroke: none; stroke-width: 1; stroke-dasharray: none; stroke-linecap: butt; stroke-linejoin: miter; stroke-miterlimit: 10; fill: rgb(255,220,100); fill-rule: nonzero; opacity: 1;" transform=" matrix(1 0 0 1 0 0) " stroke-linecap="round" />
	<path d="M 61.149 27.551 c 0.178 -1.502 0.651 -2.778 1.213 -3.986 c 0.574 -1.199 1.263 -2.31 2.051 -3.344 c 0.788 -1.035 1.679 -1.991 2.686 -2.859 c 1.018 -0.859 2.127 -1.649 3.533 -2.212 c -0.174 1.504 -0.646 2.781 -1.209 3.989 c -0.574 1.199 -1.263 2.31 -2.055 3.341 c -0.792 1.032 -1.683 1.988 -2.69 2.856 C 63.659 26.195 62.551 26.985 61.149 27.551 z" style="stroke: none; stroke-width: 1; stroke-dasharray: none; stroke-linecap: butt; stroke-linejoin: miter; stroke-miterlimit: 10; fill: rgb(255,220,100); fill-rule: nonzero; opacity: 1;" transform=" matrix(1 0 0 1 0 0) " stroke-linecap="round" />
	<path d="M 28.851 27.551 c -1.402 -0.565 -2.51 -1.356 -3.529 -2.215 c -1.007 -0.868 -1.898 -1.824 -2.69 -2.856 c -0.793 -1.032 -1.482 -2.142 -2.055 -3.341 c -0.563 -1.207 -1.034 -2.484 -1.209 -3.989 c 1.406 0.562 2.515 1.352 3.533 2.212 c 1.007 0.868 1.898 1.824 2.686 2.859 c 0.789 1.035 1.478 2.145 2.051 3.344 C 28.201 24.773 28.673 26.049 28.851 27.551 z" style="stroke: none; stroke-width: 1; stroke-dasharray: none; stroke-linecap: butt; stroke-linejoin: miter; stroke-miterlimit: 10; fill: rgb(255,220,100); fill-rule: nonzero; opacity: 1;" transform=" matrix(1 0 0 1 0 0) " stroke-linecap="round" />
	<path d="M 18.625 57.651 c -0.896 1.119 -1.911 1.887 -2.963 2.549 c -1.056 0.648 -2.16 1.158 -3.303 1.55 c -1.143 0.393 -2.329 0.662 -3.561 0.793 c -1.237 0.119 -2.51 0.129 -3.904 -0.216 c 0.894 -1.124 1.909 -1.893 2.961 -2.554 c 1.056 -0.648 2.16 -1.158 3.305 -1.545 c 1.145 -0.388 2.33 -0.657 3.562 -0.789 C 15.959 57.322 17.232 57.311 18.625 57.651 z" style="stroke: none; stroke-width: 1; stroke-dasharray: none; stroke-linecap: butt; stroke-linejoin: miter; stroke-miterlimit: 10; fill: rgb(255,220,100); fill-rule: nonzero; opacity: 1;" transform=" matrix(1 0 0 1 0 0) " stroke-linecap="round" />
	<path d="M 45 74.368 c 0.771 1.173 1.17 2.347 1.458 3.52 c 0.273 1.173 0.4 2.347 0.402 3.52 c 0.003 1.173 -0.124 2.347 -0.397 3.52 c -0.287 1.173 -0.687 2.347 -1.463 3.52 c -0.775 -1.173 -1.176 -2.347 -1.463 -3.52 c -0.273 -1.173 -0.4 -2.347 -0.397 -3.52 c 0.002 -1.173 0.129 -2.347 0.402 -3.52 C 43.83 76.715 44.229 75.542 45 74.368 z" style="stroke: none; stroke-width: 1; stroke-dasharray: none; stroke-linecap: butt; stroke-linejoin: miter; stroke-miterlimit: 10; fill: rgb(255,220,100); fill-rule: nonzero; opacity: 1;" transform=" matrix(1 0 0 1 0 0) " stroke-linecap="round" />
	<path d="M 34.024 75.184 c 0.459 -9.597 1.838 -19.835 4.243 -30.34 c 2.654 -11.595 6.29 -22.36 10.567 -31.887 L 45 1.55 L 33.966 34.378 H 0 l 27.435 20.189 L 16.983 87.186 L 34.024 75.184 z" style="stroke: none; stroke-width: 1; stroke-dasharray: none; stroke-linecap: butt; stroke-linejoin: miter; stroke-miterlimit: 10; fill: rgb(255,200,80); fill-rule: nonzero; opacity: 1;" transform=" matrix(1 0 0 1 0 0) " stroke-linecap="round" />
</g>
</svg>